<?xml version="1.0" encoding="utf-8"?>
<!-- Generator: Adobe Illustrator 17.0.0, SVG Export Plug-In . SVG Version: 6.00 Build 0)  -->
<!DOCTYPE svg PUBLIC "-//W3C//DTD SVG 1.1//EN" "http://www.w3.org/Graphics/SVG/1.1/DTD/svg11.dtd">
<svg version="1.1" id="Capa_1" xmlns="http://www.w3.org/2000/svg" xmlns:xlink="http://www.w3.org/1999/xlink" x="0px" y="0px"
	 width="24.495px" height="24.747px" viewBox="0 0 24.495 24.747" enable-background="new 0 0 24.495 24.747" xml:space="preserve">
<g>
	<g>
		<path fill="#80C6BC" d="M24.026,11.998l-0.155-1.504c-0.931-5.522-5.738-9.728-11.524-9.728c-5.695,0-10.438,4.074-11.476,9.466
			c-0.134,0.688-0.207,1.396-0.21,2.124c-0.003,0.032-0.003,0.067-0.003,0.099c0,6.456,5.233,11.688,11.688,11.688
			s11.688-5.233,11.688-11.688C24.035,12.3,24.032,12.15,24.026,11.998z M20.532,12.452c-0.338,0.38-0.937,0.507-1.314,0.172
			c-0.557-0.496-1.185-0.225-1.783-0.266c-0.081-0.005-0.214,0.233-0.263,0.379c-0.56,1.699-1.107,3.401-1.657,5.102
			c-0.027,0.084-0.03,0.189-0.084,0.245c-0.189,0.196-0.373,0.493-0.599,0.537c-0.368,0.07-0.508-0.274-0.59-0.596
			c-0.351-1.398-0.706-2.794-1.06-4.192c-0.322-1.275-0.646-2.551-0.992-3.911c-0.106,0.173-0.184,0.277-0.24,0.391
			c-0.653,1.323-1.288,2.656-1.964,3.967c-0.119,0.231-0.391,0.522-0.601,0.528c-0.21,0.006-0.487-0.271-0.631-0.493
			c-0.348-0.537-0.619-1.126-0.963-1.667c-0.096-0.152-0.335-0.295-0.511-0.3c-0.605-0.012-1.212-0.12-1.769,0.345
			c-0.362,0.303-0.946,0.082-1.237-0.318c-0.26-0.359-0.236-0.914,0.058-1.258c0.324-0.38,0.897-0.532,1.258-0.211
			c0.383,0.339,0.788,0.287,1.211,0.291c1.806,0.015,1.348-0.181,2.222,1.313c0.087,0.149,0.169,0.301,0.312,0.558
			c0.374-0.754,0.703-1.418,1.031-2.082c0.464-0.932,0.907-1.876,1.404-2.79c0.119-0.218,0.437-0.484,0.631-0.459
			c0.196,0.024,0.45,0.351,0.514,0.59c0.637,2.381,1.24,4.772,1.854,7.159c0.035,0.134,0.078,0.265,0.149,0.507
			c0.306-0.934,0.58-1.771,0.852-2.606c0.176-0.546,0.364-1.088,0.523-1.637c0.116-0.4,0.367-0.564,0.768-0.554
			c0.347,0.008,0.695-0.003,1.042,0.002c0.414,0.006,0.793,0.006,1.158-0.307c0.379-0.327,0.98-0.169,1.302,0.228
			C20.891,11.517,20.879,12.063,20.532,12.452z"/>
	</g>
	<g>
		<path fill="#FFFFFF" d="M12.412,23.271c-5.964,0-10.817-4.852-10.817-10.817c0-0.034,0-0.07,0.002-0.103
			c0.003-0.646,0.069-1.308,0.195-1.954c0.976-5.075,5.442-8.76,10.62-8.76c5.3,0,9.785,3.786,10.664,9.003l0.142,1.377
			c0.006,0.155,0.01,0.295,0.01,0.437C23.229,18.418,18.376,23.271,12.412,23.271z M12.412,2.093c-4.959,0-9.237,3.528-10.172,8.39
			c-0.121,0.619-0.184,1.252-0.187,1.881c-0.002,0.037-0.002,0.064-0.002,0.089c0,5.713,4.648,10.361,10.36,10.361
			c5.713,0,10.361-4.648,10.361-10.361c0-0.136-0.004-0.27-0.009-0.405l-0.139-1.348C21.784,5.72,17.488,2.093,12.412,2.093z"/>
	</g>
</g>
</svg>
